<?xml version="1.0" encoding="UTF-8"?>
<!DOCTYPE svg PUBLIC "-//W3C//DTD SVG 1.1//EN" "http://www.w3.org/Graphics/SVG/1.1/DTD/svg11.dtd">
<svg xmlns="http://www.w3.org/2000/svg" version="1.1" width="256px" height="256px" style="shape-rendering:geometricPrecision; text-rendering:geometricPrecision; image-rendering:optimizeQuality; fill-rule:evenodd; clip-rule:evenodd" xmlns:xlink="http://www.w3.org/1999/xlink">
<g><path style="opacity:0.96" fill="#020202" d="M 114.5,-0.5 C 123.167,-0.5 131.833,-0.5 140.5,-0.5C 162.468,4.06777 181.634,14.0678 198,29.5C 201.281,23.7634 205.781,19.2634 211.5,16C 215.274,14.8175 218.441,15.6508 221,18.5C 222.399,21.3634 223.399,24.3634 224,27.5C 225.939,40.4356 227.272,53.4356 228,66.5C 247.354,97.9142 254.687,131.914 250,168.5C 242.019,198.958 223.185,219.458 193.5,230C 185.211,232.489 176.878,234.822 168.5,237C 159.936,246.276 149.602,252.443 137.5,255.5C 130.833,255.5 124.167,255.5 117.5,255.5C 105.398,252.443 95.0644,246.276 86.5,237C 15.8004,221.145 -10.0329,177.978 9,107.5C 13.093,92.9821 19.093,79.3154 27,66.5C 27.7275,53.4356 29.0609,40.4356 31,27.5C 32.3819,15.0811 38.2152,12.2478 48.5,19C 51.3333,22.5 54.1667,26 57,29.5C 73.3656,14.0678 92.5322,4.06777 114.5,-0.5 Z"/></g>
<g><path style="opacity:1" fill="#c6c5c7" d="M 116.5,7.5 C 141.986,5.94064 164.653,13.1073 184.5,29C 150.337,22.633 116.004,21.9664 81.5,27C 77.8186,28.0712 74.1519,28.7379 70.5,29C 84.124,18.0748 99.4573,10.9082 116.5,7.5 Z"/></g>
<g><path style="opacity:1" fill="#656168" d="M 40.5,24.5 C 44.5214,27.5223 47.8547,31.1889 50.5,35.5C 45.8097,41.0227 41.3097,46.6894 37,52.5C 36.8543,42.9993 38.0209,33.6659 40.5,24.5 Z"/></g>
<g><path style="opacity:1" fill="#656168" d="M 213.5,24.5 C 214.793,25.842 215.626,27.5087 216,29.5C 217.413,37.1289 218.08,44.7956 218,52.5C 213.69,46.6894 209.19,41.0227 204.5,35.5C 207.145,31.5236 210.145,27.857 213.5,24.5 Z"/></g>
<g><path style="opacity:1" fill="#c0bfc1" d="M 188.5,44.5 C 179.311,42.3819 170.311,39.5486 161.5,36C 153.924,34.6087 146.924,35.7754 140.5,39.5C 135.928,40.0239 131.594,41.3573 127.5,43.5C 123.402,41.3923 119.069,40.059 114.5,39.5C 107.69,35.8256 100.357,34.6589 92.5,36C 84.0925,39.7079 75.4259,42.5412 66.5,44.5C 63.201,43.0985 62.8677,41.2652 65.5,39C 103.981,29.673 142.648,29.0063 181.5,37C 184.922,37.6736 188.089,38.8402 191,40.5C 191.279,42.4122 190.446,43.7456 188.5,44.5 Z"/></g>
<g><path style="opacity:1" fill="#494857" d="M 114.5,39.5 C 101.868,38.6465 89.5343,40.1465 77.5,44C 74.8333,46.3333 74.8333,48.6667 77.5,51C 81.5008,50.8382 85.5008,50.3382 89.5,49.5C 84.0854,52.4442 78.2521,54.4442 72,55.5C 70.8333,55.3333 69.6667,55.1667 68.5,55C 67.4677,53.3732 66.1344,52.2066 64.5,51.5C 67.4848,49.9016 68.1514,47.5682 66.5,44.5C 75.4259,42.5412 84.0925,39.7079 92.5,36C 100.357,34.6589 107.69,35.8256 114.5,39.5 Z"/></g>
<g><path style="opacity:1" fill="#484857" d="M 188.5,44.5 C 187.062,47.0835 187.396,49.4168 189.5,51.5C 187.866,54.2365 185.366,55.5698 182,55.5C 177.058,54.7687 172.558,53.102 168.5,50.5C 171.469,51.3287 174.469,51.4954 177.5,51C 180.167,48.6667 180.167,46.3333 177.5,44C 165.435,40.3543 153.102,38.8543 140.5,39.5C 146.924,35.7754 153.924,34.6087 161.5,36C 170.311,39.5486 179.311,42.3819 188.5,44.5 Z"/></g>
<g><path style="opacity:1" fill="#020203" d="M 114.5,39.5 C 119.069,40.059 123.402,41.3923 127.5,43.5C 131.594,41.3573 135.928,40.0239 140.5,39.5C 153.102,38.8543 165.435,40.3543 177.5,44C 180.167,46.3333 180.167,48.6667 177.5,51C 174.469,51.4954 171.469,51.3287 168.5,50.5C 164.929,49.3578 161.262,48.6911 157.5,48.5C 151.013,47.346 144.346,47.1794 137.5,48C 132.065,50.3446 130.065,54.5112 131.5,60.5C 131.667,78.1698 131.5,95.8365 131,113.5C 128.667,116.167 126.333,116.167 124,113.5C 123.5,95.8365 123.333,78.1698 123.5,60.5C 123.664,57.8127 123.497,55.146 123,52.5C 122.5,50.6667 121.333,49.5 119.5,49C 112.046,47.35 104.712,47.1833 97.5,48.5C 94.7628,48.4013 92.0961,48.7347 89.5,49.5C 85.5008,50.3382 81.5008,50.8382 77.5,51C 74.8333,48.6667 74.8333,46.3333 77.5,44C 89.5343,40.1465 101.868,38.6465 114.5,39.5 Z"/></g>
<g><path style="opacity:1" fill="#cac9cb" d="M 59.5,97.5 C 59.1264,110.213 59.6264,122.88 61,135.5C 63.2232,146.613 68.0566,156.28 75.5,164.5C 75.3334,179.837 75.5001,195.17 76,210.5C 77.0356,215.643 78.5356,220.643 80.5,225.5C 55.2002,221.589 35.3668,208.922 21,187.5C 10.7412,164.948 8.7412,141.615 15,117.5C 22.091,89.3087 35.4244,64.6421 55,43.5C 55.3333,59.1667 55.6667,74.8333 56,90.5C 57.1799,92.8599 58.3466,95.1932 59.5,97.5 Z"/></g>
<g><path style="opacity:1" fill="#cac9cb" d="M 179.5,164.5 C 186.943,156.28 191.777,146.613 194,135.5C 195.374,122.88 195.874,110.213 195.5,97.5C 196.653,95.1932 197.82,92.8599 199,90.5C 199.333,74.8333 199.667,59.1667 200,43.5C 226.936,72.2848 241.436,106.451 243.5,146C 243.854,179.31 229.187,203.31 199.5,218C 191.662,221.335 183.662,224.168 175.5,226.5C 175.167,226.167 174.833,225.833 174.5,225.5C 176.464,220.643 177.964,215.643 179,210.5C 179.5,195.17 179.667,179.837 179.5,164.5 Z"/></g>
<g><path style="opacity:1" fill="#444452" d="M 97.5,48.5 C 104.712,47.1833 112.046,47.35 119.5,49C 121.333,49.5 122.5,50.6667 123,52.5C 123.497,55.146 123.664,57.8127 123.5,60.5C 117.387,56.9376 111.387,53.1042 105.5,49C 102.854,48.5026 100.187,48.3359 97.5,48.5 Z"/></g>
<g><path style="opacity:1" fill="#434351" d="M 157.5,48.5 C 154.813,48.3359 152.146,48.5026 149.5,49C 143.613,53.1042 137.613,56.9376 131.5,60.5C 130.065,54.5112 132.065,50.3446 137.5,48C 144.346,47.1794 151.013,47.346 157.5,48.5 Z"/></g>
<g><path style="opacity:1" fill="#6a666d" d="M 97.5,48.5 C 100.187,48.3359 102.854,48.5026 105.5,49C 111.387,53.1042 117.387,56.9376 123.5,60.5C 123.333,78.1698 123.5,95.8365 124,113.5C 126.333,116.167 128.667,116.167 131,113.5C 131.5,95.8365 131.667,78.1698 131.5,60.5C 137.613,56.9376 143.613,53.1042 149.5,49C 152.146,48.5026 154.813,48.3359 157.5,48.5C 161.262,48.6911 164.929,49.3578 168.5,50.5C 172.558,53.102 177.058,54.7687 182,55.5C 185.366,55.5698 187.866,54.2365 189.5,51.5C 190.83,57.463 191.496,63.7963 191.5,70.5C 191.333,76.8333 191.167,83.1667 191,89.5C 188.648,91.674 187.481,94.3407 187.5,97.5C 185.999,98.7515 184.332,99.7515 182.5,100.5C 180.932,99.5269 179.265,99.3603 177.5,100C 174.769,102.626 172.936,105.793 172,109.5C 171.667,141.167 171.333,172.833 171,204.5C 156.108,212.014 140.274,215.681 123.5,215.5C 109.495,214.708 96.3279,211.041 84,204.5C 83.6667,172.833 83.3333,141.167 83,109.5C 82.0642,105.793 80.2308,102.626 77.5,100C 75.735,99.3603 74.0683,99.5269 72.5,100.5C 70.9991,99.2485 69.3325,98.2485 67.5,97.5C 67.5186,94.3407 66.3519,91.674 64,89.5C 63.1733,76.6599 63.34,63.9933 64.5,51.5C 66.1344,52.2066 67.4677,53.3732 68.5,55C 69.6667,55.1667 70.8333,55.3333 72,55.5C 78.2521,54.4442 84.0854,52.4442 89.5,49.5C 92.0961,48.7347 94.7628,48.4013 97.5,48.5 Z"/></g>
<g><path style="opacity:1" fill="#030303" d="M 95.5,51.5 C 108.964,51.8092 113.464,58.1425 109,70.5C 99.6364,78.4421 92.6364,76.7754 88,65.5C 87.3333,63.5 87.3333,61.5 88,59.5C 90.0282,56.3078 92.5282,53.6411 95.5,51.5 Z"/></g>
<g><path style="opacity:1" fill="#030303" d="M 151.5,51.5 C 164.964,51.8092 169.464,58.1425 165,70.5C 155.636,78.4421 148.636,76.7754 144,65.5C 143.333,63.5 143.333,61.5 144,59.5C 146.028,56.3078 148.528,53.6411 151.5,51.5 Z"/></g>
<g><path style="opacity:1" fill="#ee7958" d="M 97.5,59.5 C 103.488,59.664 104.821,62.164 101.5,67C 95.4034,67.1475 94.0701,64.6475 97.5,59.5 Z"/></g>
<g><path style="opacity:1" fill="#ee7958" d="M 153.5,59.5 C 159.488,59.664 160.821,62.164 157.5,67C 151.403,67.1475 150.07,64.6475 153.5,59.5 Z"/></g>
<g><path style="opacity:1" fill="#9e9ba0" d="M 59.5,97.5 C 62.1667,100.167 64.8333,100.167 67.5,97.5C 69.3325,98.2485 70.9991,99.2485 72.5,100.5C 72.0183,101.416 71.685,102.416 71.5,103.5C 72.8632,105.708 74.0299,108.041 75,110.5C 75.4999,128.497 75.6666,146.497 75.5,164.5C 68.0566,156.28 63.2232,146.613 61,135.5C 59.6264,122.88 59.1264,110.213 59.5,97.5 Z"/></g>
<g><path style="opacity:1" fill="#9e9ba0" d="M 187.5,97.5 C 190.167,100.167 192.833,100.167 195.5,97.5C 195.874,110.213 195.374,122.88 194,135.5C 191.777,146.613 186.943,156.28 179.5,164.5C 179.333,146.497 179.5,128.497 180,110.5C 180.26,108.382 181.26,106.716 183,105.5C 183.64,103.735 183.473,102.068 182.5,100.5C 184.332,99.7515 185.999,98.7515 187.5,97.5 Z"/></g>
<g><path style="opacity:1" fill="#050506" d="M 105.5,163.5 C 106.873,163.343 108.207,163.51 109.5,164C 113.333,169.167 117.833,173.667 123,177.5C 123.833,182 122,183.833 117.5,183C 114,180.167 110.5,177.333 107,174.5C 105.304,172.44 104.137,170.107 103.5,167.5C 103.752,165.927 104.418,164.594 105.5,163.5 Z"/></g>
<g><path style="opacity:1" fill="#050506" d="M 145.5,163.5 C 151.375,163.636 152.875,166.303 150,171.5C 146.185,175.645 142.019,179.478 137.5,183C 133,183.833 131.167,182 132,177.5C 137.376,173.625 141.876,168.958 145.5,163.5 Z"/></g>
<g><path style="opacity:1" fill="#444453" d="M 85.5,214.5 C 113.319,226.451 141.152,226.451 169,214.5C 167.028,224.595 161.861,232.762 153.5,239C 128.52,253.55 107.353,249.384 90,226.5C 87.646,222.797 86.146,218.797 85.5,214.5 Z"/></g>
<g><path style="opacity:1" fill="#020203" d="M 113.5,227.5 C 122.825,228.476 132.158,228.643 141.5,228C 144.167,230.333 144.167,232.667 141.5,235C 132.151,236.736 122.818,236.736 113.5,235C 110.914,232.506 110.914,230.006 113.5,227.5 Z"/></g>
</svg>
